<?xml version="1.0" encoding="UTF-8" standalone="no"?>
<svg width="284px" height="37px" viewBox="0 0 284 37" version="1.1" xmlns="http://www.w3.org/2000/svg" xmlns:xlink="http://www.w3.org/1999/xlink" xmlns:sketch="http://www.bohemiancoding.com/sketch/ns">
    <!-- Generator: Sketch 3.3.2 (12043) - http://www.bohemiancoding.com/sketch -->
    <title>Imported Layers Copy 6</title>
    <desc>Created with Sketch.</desc>
    <defs></defs>
    <g id="Page-1" stroke="none" stroke-width="1" fill="none" fill-rule="evenodd" sketch:type="MSPage">
        <g id="Imported-Layers-Copy-6" sketch:type="MSLayerGroup" fill="#FFFFFF">
            <path d="M24.0048848,15.0615814 C27.1753576,16.6956047 29.9017576,20.6649302 29.9017576,25.2727209 C29.9017576,33.7491628 22.2182667,36.3787442 15.0322061,36.3787442 C12.3032242,36.3787442 9.47613333,35.3375814 7.1,34.0460233 L1.74444848,36.3787442 L0.504315152,36.3787442 L0.155769697,24.0826977 L1.74444848,24.0826977 C4.22385455,29.933 9.08025455,35.0398605 15.8274061,35.0398605 C17.9057697,35.0398605 20.5813939,34.1948837 20.5813939,31.7184651 C20.5813939,28.7911628 17.3610061,27.552093 15.1311758,26.5642791 L11.3625818,24.8794884 C4.17135758,21.6536047 0.504315152,17.3409535 0.504315152,11.939814 C0.504315152,4.7015814 5.71270303,0.537790698 12.6483273,0.537790698 C15.4289455,0.537790698 18.1019879,1.38018605 20.5813939,2.5702093 L25.9395273,0.537790698 L27.0789697,0.537790698 L27.4757091,11.8890465 L26.1331636,11.8890465 C23.6563394,6.53523256 19.0959879,1.87409302 12.8505697,1.87409302 C10.9641212,1.87409302 8.6336,2.86793023 8.6336,5.09997674 C8.6336,7.77602326 11.9047636,8.86537209 13.8901818,9.90653488 L24.0048848,15.0615814" id="Fill-1" sketch:type="MSShapeGroup"></path>
            <path d="M46.3143758,3.46337209 L46.3143758,12.1867674 L51.9134788,12.1867674 L51.9134788,13.3742093 L46.3143758,13.3742093 L46.3143758,30.8734884 C46.3143758,31.9628372 46.2136848,33.4032558 47.6990909,33.4032558 C50.2292727,33.4032558 51.2232727,29.3384186 51.4676848,27.404093 L52.5597939,27.404093 C52.0649455,34.3446047 48.0476364,36.3787442 41.6524727,36.3787442 C35.6506061,36.3787442 34.1643394,34.6922326 34.1643394,28.2482093 L34.1643394,13.3742093 L31.2408606,13.3742093 L31.2408606,12.1867674 C37.3881697,12.1867674 42.2488727,8.51688372 45.3711515,3.46337209 L46.3143758,3.46337209" id="Fill-2" sketch:type="MSShapeGroup"></path>
            <path d="M71.0542182,15.8557907 C71.0542182,13.6237442 70.5060121,12.8321163 68.2254061,12.8321163 C67.3329576,12.8321163 66.2434303,12.9302093 66.2434303,13.3742093 C66.2434303,14.0204186 68.079103,14.6175814 68.079103,16.8470465 C68.079103,20.2665349 64.1117091,20.8137907 61.4834182,20.8137907 C59.0522061,20.8137907 56.0306182,19.8199535 56.0306182,16.8952326 C56.0306182,14.7156744 57.2690303,11.4923721 68.3768727,11.4923721 C70.8545576,11.4923721 74.9200606,11.8382791 77.2987758,12.4337209 C80.575103,13.1780233 82.6534667,14.6175814 82.6534667,18.3322093 L82.6534667,31.6177907 C82.6534667,32.1624651 82.8505455,32.807814 83.4994424,32.807814 C84.4392242,32.807814 84.9332121,32.1116977 85.5321939,31.5196977 L85.5321939,33.2543953 C83.642303,35.4356744 80.575103,36.3787442 77.7962061,36.3787442 C74.9682545,36.3787442 72.736703,35.730814 71.4492364,32.9566744 C68.9681091,35.6834884 65.3509818,36.3787442 61.8293818,36.3787442 C58.0659515,36.3787442 54.097697,34.743 54.097697,30.3296744 C54.097697,27.058186 55.8335394,23.6860233 62.7751879,22.7455349 C64.955103,22.447814 66.3914545,22.3497209 68.6221455,22.3497209 L71.0542182,22.3497209 L71.0542182,15.8557907 L71.0542182,15.8557907 Z M71.0542182,23.5380233 L69.2676,23.5380233 C66.1926545,23.5380233 66.5911152,27.058186 66.5911152,29.3384186 C66.5911152,30.7753953 66.4930061,33.4531628 68.4732606,33.4531628 C71.1996606,33.4531628 71.0542182,30.3296744 71.0542182,28.4960233 L71.0542182,23.5380233 L71.0542182,23.5380233 Z" id="Fill-3" sketch:type="MSShapeGroup"></path>
            <path d="M100.400885,3.46337209 L100.400885,12.1867674 L106.006012,12.1867674 L106.006012,13.3742093 L100.400885,13.3742093 L100.400885,30.8734884 C100.400885,31.9628372 100.305358,33.4032558 101.792485,33.4032558 C104.318364,33.4032558 105.311503,29.3384186 105.561079,27.404093 L106.651467,27.404093 C106.152315,34.3446047 102.139309,36.3787442 95.7441455,36.3787442 C89.744,36.3787442 88.2560121,34.6922326 88.2560121,28.2482093 L88.2560121,13.3742093 L85.3316727,13.3742093 L85.3316727,12.1867674 C91.4815636,12.1867674 96.337103,8.51688372 99.4593818,3.46337209 L100.400885,3.46337209" id="Fill-4" sketch:type="MSShapeGroup"></path>
            <path d="M120.185358,25.4697674 L120.185358,27.552093 C120.185358,31.5196977 120.928061,34.6414651 125.540909,34.6414651 C129.208812,34.6414651 132.529891,32.313907 134.613418,29.439093 L135.554921,30.0818605 C132.580667,34.3945116 128.416194,36.3787442 123.061503,36.3787442 C120.185358,36.3787442 117.605261,36.1773953 114.929636,35.0398605 C110.71783,33.2543953 107.690218,29.7841395 107.690218,23.9338372 C107.690218,16.0046512 114.235127,11.4923721 121.7224,11.4923721 C130.300061,11.4923721 136.250291,16.6956047 136.1496,25.4697674 L120.185358,25.4697674 L120.185358,25.4697674 Z M124.447079,24.2814651 L124.447079,17.439907 C124.447079,15.7069302 124.842958,12.6832558 122.21897,12.6832558 C119.9332,12.6832558 120.185358,15.9039767 120.185358,17.439907 L120.185358,24.2814651 L124.447079,24.2814651 L124.447079,24.2814651 Z" id="Fill-5" sketch:type="MSShapeGroup"></path>
            <path d="M148.836655,35.6353023 L148.836655,34.2955581 L150.070764,34.2955581 C152.204206,34.2955581 152.852242,31.8647442 152.852242,29.5879535 L152.852242,5.24625581 C151.909879,4.00546512 151.118121,2.5702093 149.581939,2.5702093 L148.836655,2.5702093 L148.836655,1.28123256 L167.677042,1.28123256 L181.110242,19.671093 L181.110242,5.09997674 C181.110242,3.71032558 179.574061,2.61839535 177.740109,2.61839535 L176.74697,2.61839535 L176.74697,1.28123256 L186.959782,1.28123256 L186.959782,2.61839535 L185.476958,2.61839535 C182.896,2.61839535 182.946776,4.55272093 182.946776,8.6184186 L182.946776,35.6353023 L174.615248,35.6353023 L154.588085,8.07030233 L154.588085,29.5879535 C154.588085,31.8647442 155.080352,34.2955581 157.46423,34.2955581 L159.047745,34.2955581 L159.047745,35.6353023 L148.836655,35.6353023" id="Fill-6" sketch:type="MSShapeGroup"></path>
            <path d="M198.512558,25.4697674 L198.512558,27.552093 C198.512558,31.5196977 199.258703,34.6414651 203.867248,34.6414651 C207.536873,34.6414651 210.857091,32.313907 212.939758,29.439093 L213.882982,30.0818605 C210.906145,34.3945116 206.742533,36.3787442 201.390424,36.3787442 C198.512558,36.3787442 195.9316,36.1773953 193.258558,35.0398605 C189.043309,33.2543953 186.016558,29.7841395 186.016558,23.9338372 C186.016558,16.0046512 192.564909,11.4923721 200.047879,11.4923721 C208.6264,11.4923721 214.579212,16.6956047 214.478521,25.4697674 L198.512558,25.4697674 L198.512558,25.4697674 Z M202.776861,24.2814651 L202.776861,17.439907 C202.776861,15.7069302 203.1736,12.6832558 200.544448,12.6832558 C198.267285,12.6832558 198.512558,15.9039767 198.512558,17.439907 L198.512558,24.2814651 L202.776861,24.2814651 L202.776861,24.2814651 Z" id="Fill-7" sketch:type="MSShapeGroup"></path>
            <path d="M212.939758,12.1867674 L229.249103,12.1867674 L229.249103,13.3742093 L227.665588,13.3742093 L233.912727,29.0398372 L236.143418,23.2428837 L232.475515,13.3742093 L230.291297,13.3742093 L230.291297,12.1867674 L247.147988,12.1867674 L247.147988,13.3742093 L244.373394,13.3742093 L250.27457,28.6947907 L254.583624,17.4923953 C255.874533,14.1185116 254.685176,13.4275581 253.841782,13.4275581 L252.901139,13.4275581 L252.901139,12.1867674 L260.485661,12.1867674 L260.485661,13.3742093 C257.610376,13.3742093 256.717927,15.9039767 255.874533,18.1360233 L249.180739,35.6353023 L240.953345,35.6353023 L236.886982,25.1720465 L232.871394,35.6353023 L224.194764,35.6353023 L215.420024,13.3742093 L212.939758,13.3742093 L212.939758,12.1867674" id="Fill-8" sketch:type="MSShapeGroup"></path>
            <path d="M261.825624,27.3077209 C263.558024,31.4689302 268.766412,35.1861395 273.327624,35.1861395 C274.81217,35.1861395 276.746812,34.939186 276.746812,33.0582093 C276.746812,30.6265349 272.779418,29.981186 268.816327,28.5433488 C264.848933,27.1063721 260.8824,24.9775814 260.8824,19.523093 C260.8824,14.4179535 265.346364,11.4923721 270.103794,11.4923721 C272.333624,11.4923721 273.924885,11.939814 276.993806,12.9809767 L280.863091,11.4923721 L281.953479,11.4923721 L282.248667,19.9696744 L281.110945,19.9696744 C279.424158,16.2016977 275.460206,12.6832558 271.143406,12.6832558 C269.55903,12.6832558 268.221648,13.1780233 268.221648,15.010814 C268.221648,16.7971395 271.195042,17.587907 272.48423,18.0370698 L277.789006,19.9696744 C281.211636,21.2078837 283.390691,24.2315581 283.390691,27.9986744 C283.390691,30.5766279 282.349358,33.2062093 280.215915,34.6922326 C278.036,36.1773953 275.410291,36.3787442 272.880109,36.3787442 C270.796582,36.3787442 268.715636,35.3375814 266.632109,34.7903256 L262.569188,36.3787442 L261.230085,36.3787442 L260.8824,27.3077209 L261.825624,27.3077209" id="Fill-9" sketch:type="MSShapeGroup"></path>
            <path d="M51.4220727,2.83006977 C50.414303,2.91611628 50.0201455,3.94781395 49.8187636,4.78848837 L49.5545576,4.78848837 L49.6001697,2.59688372 L55.8937818,2.59688372 L55.9393939,4.78848837 L55.6700242,4.78848837 C55.4738061,3.94781395 55.0753455,2.91611628 54.0718788,2.83006977 L54.0718788,8.3224186 L54.8541697,8.3224186 L54.8541697,8.55560465 L50.6303152,8.55560465 L50.6303152,8.3224186 L51.4220727,8.3224186 L51.4220727,2.83006977" id="Fill-10" sketch:type="MSShapeGroup"></path>
            <path d="M59.1193333,8.34909302 L59.4196848,8.34909302 L59.4196848,8.55560465 L56.5779636,8.55560465 L56.5779636,8.34909302 L57.0452727,8.34909302 L57.0452727,2.80081395 L56.5925939,2.80081395 L56.5925939,2.59688372 C57.4325455,2.59688372 58.2776606,2.49362791 59.1193333,2.46695349 L59.1193333,5.19376744 C59.445503,4.67748837 60.0246909,4.36513953 60.6219515,4.36513953 C61.6469333,4.36513953 62.0281818,5.00360465 62.0281818,5.89934884 L62.0281818,8.34909302 L62.4825818,8.34909302 L62.4825818,8.55560465 L59.6546303,8.55560465 L59.6546303,8.34909302 L59.9549818,8.34909302 L59.9549818,5.85374419 C59.9549818,5.5895814 60.0005939,4.99672093 59.6451636,4.99672093 C59.4842303,4.99672093 59.1193333,5.09997674 59.1193333,6.52576744 L59.1193333,8.34909302" id="Fill-11" sketch:type="MSShapeGroup"></path>
            <path d="M64.8828121,6.79423256 L64.8828121,7.15390698 C64.8828121,7.84313953 65.011903,8.38265116 65.8088242,8.38265116 C66.4473939,8.38265116 67.024,7.97909302 67.3863152,7.48002326 L67.5489697,7.59360465 C67.0334667,8.33962791 66.3105576,8.68553488 65.3793818,8.68553488 C64.8828121,8.68553488 64.4361576,8.64939535 63.9705697,8.44976744 C63.2416364,8.1425814 62.7149455,7.54025581 62.7149455,6.52576744 C62.7149455,5.14988372 63.8500848,4.36513953 65.1461576,4.36513953 C66.6375879,4.36513953 67.6694545,5.27206977 67.6496606,6.79423256 L64.8828121,6.79423256 L64.8828121,6.79423256 Z M65.6220727,6.58772093 L65.6220727,5.402 C65.6220727,5.09997674 65.6909212,4.57165116 65.2330788,4.57165116 C64.8397818,4.57165116 64.8828121,5.13353488 64.8828121,5.402 L64.8828121,6.58772093 L65.6220727,6.58772093 L65.6220727,6.58772093 Z" id="Fill-12" sketch:type="MSShapeGroup"></path>
        </g>
    </g>
</svg>